<?xml version="1.0" encoding="utf-8" standalone="no"?>
<!DOCTYPE svg PUBLIC "-//W3C//DTD SVG 1.1//EN"
  "http://www.w3.org/Graphics/SVG/1.1/DTD/svg11.dtd">
<svg xmlns:xlink="http://www.w3.org/1999/xlink" width="388.965625pt" height="277.314375pt" viewBox="0 0 388.965625 277.314375" xmlns="http://www.w3.org/2000/svg" version="1.1">
 <metadata>
  <rdf:RDF xmlns:dc="http://purl.org/dc/elements/1.1/" xmlns:cc="http://creativecommons.org/ns#" xmlns:rdf="http://www.w3.org/1999/02/22-rdf-syntax-ns#">
   <cc:Work>
    <dc:type rdf:resource="http://purl.org/dc/dcmitype/StillImage"/>
    <dc:date>2022-01-21T13:42:09.997653</dc:date>
    <dc:format>image/svg+xml</dc:format>
    <dc:creator>
     <cc:Agent>
      <dc:title>Matplotlib v3.5.1, https://matplotlib.org/</dc:title>
     </cc:Agent>
    </dc:creator>
   </cc:Work>
  </rdf:RDF>
 </metadata>
 <defs>
  <style type="text/css">*{stroke-linejoin: round; stroke-linecap: butt}</style>
 </defs>
 <g id="figure_1">
  <g id="patch_1">
   <path d="M 0 277.314375 
L 388.965625 277.314375 
L 388.965625 0 
L 0 0 
L 0 277.314375 
z
" style="fill: none"/>
  </g>
  <g id="axes_1">
   <g id="patch_2">
    <path d="M 46.965625 239.758125 
L 381.765625 239.758125 
L 381.765625 22.318125 
L 46.965625 22.318125 
z
" style="fill: #ffffff"/>
   </g>
   <g id="matplotlib.axis_1">
    <g id="xtick_1">
     <g id="line2d_1">
      <path d="M 57.352638 239.758125 
L 57.352638 22.318125 
" clip-path="url(#pde5fde2b4f)" style="fill: none; stroke: #b0b0b0; stroke-width: 0.8; stroke-linecap: square"/>
     </g>
     <g id="line2d_2">
      <defs>
       <path id="m8310992636" d="M 0 0 
L 0 3.5 
" style="stroke: #000000; stroke-width: 0.8"/>
      </defs>
      <g>
       <use xlink:href="#m8310992636" x="57.352638" y="239.758125" style="stroke: #000000; stroke-width: 0.8"/>
      </g>
     </g>
     <g id="text_1">
      <!-- 0 -->
      <g transform="translate(54.171388 254.356562)scale(0.1 -0.1)">
       <defs>
        <path id="DejaVuSans-30" d="M 2034 4250 
Q 1547 4250 1301 3770 
Q 1056 3291 1056 2328 
Q 1056 1369 1301 889 
Q 1547 409 2034 409 
Q 2525 409 2770 889 
Q 3016 1369 3016 2328 
Q 3016 3291 2770 3770 
Q 2525 4250 2034 4250 
z
M 2034 4750 
Q 2819 4750 3233 4129 
Q 3647 3509 3647 2328 
Q 3647 1150 3233 529 
Q 2819 -91 2034 -91 
Q 1250 -91 836 529 
Q 422 1150 422 2328 
Q 422 3509 836 4129 
Q 1250 4750 2034 4750 
z
" transform="scale(0.015625)"/>
       </defs>
       <use xlink:href="#DejaVuSans-30"/>
      </g>
     </g>
    </g>
    <g id="xtick_2">
     <g id="line2d_3">
      <path d="M 105.664326 239.758125 
L 105.664326 22.318125 
" clip-path="url(#pde5fde2b4f)" style="fill: none; stroke: #b0b0b0; stroke-width: 0.8; stroke-linecap: square"/>
     </g>
     <g id="line2d_4">
      <g>
       <use xlink:href="#m8310992636" x="105.664326" y="239.758125" style="stroke: #000000; stroke-width: 0.8"/>
      </g>
     </g>
     <g id="text_2">
      <!-- 10 -->
      <g transform="translate(99.301826 254.356562)scale(0.1 -0.1)">
       <defs>
        <path id="DejaVuSans-31" d="M 794 531 
L 1825 531 
L 1825 4091 
L 703 3866 
L 703 4441 
L 1819 4666 
L 2450 4666 
L 2450 531 
L 3481 531 
L 3481 0 
L 794 0 
L 794 531 
z
" transform="scale(0.015625)"/>
       </defs>
       <use xlink:href="#DejaVuSans-31"/>
       <use xlink:href="#DejaVuSans-30" x="63.623047"/>
      </g>
     </g>
    </g>
    <g id="xtick_3">
     <g id="line2d_5">
      <path d="M 153.976015 239.758125 
L 153.976015 22.318125 
" clip-path="url(#pde5fde2b4f)" style="fill: none; stroke: #b0b0b0; stroke-width: 0.8; stroke-linecap: square"/>
     </g>
     <g id="line2d_6">
      <g>
       <use xlink:href="#m8310992636" x="153.976015" y="239.758125" style="stroke: #000000; stroke-width: 0.8"/>
      </g>
     </g>
     <g id="text_3">
      <!-- 20 -->
      <g transform="translate(147.613515 254.356562)scale(0.1 -0.1)">
       <defs>
        <path id="DejaVuSans-32" d="M 1228 531 
L 3431 531 
L 3431 0 
L 469 0 
L 469 531 
Q 828 903 1448 1529 
Q 2069 2156 2228 2338 
Q 2531 2678 2651 2914 
Q 2772 3150 2772 3378 
Q 2772 3750 2511 3984 
Q 2250 4219 1831 4219 
Q 1534 4219 1204 4116 
Q 875 4013 500 3803 
L 500 4441 
Q 881 4594 1212 4672 
Q 1544 4750 1819 4750 
Q 2544 4750 2975 4387 
Q 3406 4025 3406 3419 
Q 3406 3131 3298 2873 
Q 3191 2616 2906 2266 
Q 2828 2175 2409 1742 
Q 1991 1309 1228 531 
z
" transform="scale(0.015625)"/>
       </defs>
       <use xlink:href="#DejaVuSans-32"/>
       <use xlink:href="#DejaVuSans-30" x="63.623047"/>
      </g>
     </g>
    </g>
    <g id="xtick_4">
     <g id="line2d_7">
      <path d="M 202.287703 239.758125 
L 202.287703 22.318125 
" clip-path="url(#pde5fde2b4f)" style="fill: none; stroke: #b0b0b0; stroke-width: 0.8; stroke-linecap: square"/>
     </g>
     <g id="line2d_8">
      <g>
       <use xlink:href="#m8310992636" x="202.287703" y="239.758125" style="stroke: #000000; stroke-width: 0.8"/>
      </g>
     </g>
     <g id="text_4">
      <!-- 30 -->
      <g transform="translate(195.925203 254.356562)scale(0.1 -0.1)">
       <defs>
        <path id="DejaVuSans-33" d="M 2597 2516 
Q 3050 2419 3304 2112 
Q 3559 1806 3559 1356 
Q 3559 666 3084 287 
Q 2609 -91 1734 -91 
Q 1441 -91 1130 -33 
Q 819 25 488 141 
L 488 750 
Q 750 597 1062 519 
Q 1375 441 1716 441 
Q 2309 441 2620 675 
Q 2931 909 2931 1356 
Q 2931 1769 2642 2001 
Q 2353 2234 1838 2234 
L 1294 2234 
L 1294 2753 
L 1863 2753 
Q 2328 2753 2575 2939 
Q 2822 3125 2822 3475 
Q 2822 3834 2567 4026 
Q 2313 4219 1838 4219 
Q 1578 4219 1281 4162 
Q 984 4106 628 3988 
L 628 4550 
Q 988 4650 1302 4700 
Q 1616 4750 1894 4750 
Q 2613 4750 3031 4423 
Q 3450 4097 3450 3541 
Q 3450 3153 3228 2886 
Q 3006 2619 2597 2516 
z
" transform="scale(0.015625)"/>
       </defs>
       <use xlink:href="#DejaVuSans-33"/>
       <use xlink:href="#DejaVuSans-30" x="63.623047"/>
      </g>
     </g>
    </g>
    <g id="xtick_5">
     <g id="line2d_9">
      <path d="M 250.599391 239.758125 
L 250.599391 22.318125 
" clip-path="url(#pde5fde2b4f)" style="fill: none; stroke: #b0b0b0; stroke-width: 0.8; stroke-linecap: square"/>
     </g>
     <g id="line2d_10">
      <g>
       <use xlink:href="#m8310992636" x="250.599391" y="239.758125" style="stroke: #000000; stroke-width: 0.8"/>
      </g>
     </g>
     <g id="text_5">
      <!-- 40 -->
      <g transform="translate(244.236891 254.356562)scale(0.1 -0.1)">
       <defs>
        <path id="DejaVuSans-34" d="M 2419 4116 
L 825 1625 
L 2419 1625 
L 2419 4116 
z
M 2253 4666 
L 3047 4666 
L 3047 1625 
L 3713 1625 
L 3713 1100 
L 3047 1100 
L 3047 0 
L 2419 0 
L 2419 1100 
L 313 1100 
L 313 1709 
L 2253 4666 
z
" transform="scale(0.015625)"/>
       </defs>
       <use xlink:href="#DejaVuSans-34"/>
       <use xlink:href="#DejaVuSans-30" x="63.623047"/>
      </g>
     </g>
    </g>
    <g id="xtick_6">
     <g id="line2d_11">
      <path d="M 298.91108 239.758125 
L 298.91108 22.318125 
" clip-path="url(#pde5fde2b4f)" style="fill: none; stroke: #b0b0b0; stroke-width: 0.8; stroke-linecap: square"/>
     </g>
     <g id="line2d_12">
      <g>
       <use xlink:href="#m8310992636" x="298.91108" y="239.758125" style="stroke: #000000; stroke-width: 0.8"/>
      </g>
     </g>
     <g id="text_6">
      <!-- 50 -->
      <g transform="translate(292.54858 254.356562)scale(0.1 -0.1)">
       <defs>
        <path id="DejaVuSans-35" d="M 691 4666 
L 3169 4666 
L 3169 4134 
L 1269 4134 
L 1269 2991 
Q 1406 3038 1543 3061 
Q 1681 3084 1819 3084 
Q 2600 3084 3056 2656 
Q 3513 2228 3513 1497 
Q 3513 744 3044 326 
Q 2575 -91 1722 -91 
Q 1428 -91 1123 -41 
Q 819 9 494 109 
L 494 744 
Q 775 591 1075 516 
Q 1375 441 1709 441 
Q 2250 441 2565 725 
Q 2881 1009 2881 1497 
Q 2881 1984 2565 2268 
Q 2250 2553 1709 2553 
Q 1456 2553 1204 2497 
Q 953 2441 691 2322 
L 691 4666 
z
" transform="scale(0.015625)"/>
       </defs>
       <use xlink:href="#DejaVuSans-35"/>
       <use xlink:href="#DejaVuSans-30" x="63.623047"/>
      </g>
     </g>
    </g>
    <g id="xtick_7">
     <g id="line2d_13">
      <path d="M 347.222768 239.758125 
L 347.222768 22.318125 
" clip-path="url(#pde5fde2b4f)" style="fill: none; stroke: #b0b0b0; stroke-width: 0.8; stroke-linecap: square"/>
     </g>
     <g id="line2d_14">
      <g>
       <use xlink:href="#m8310992636" x="347.222768" y="239.758125" style="stroke: #000000; stroke-width: 0.8"/>
      </g>
     </g>
     <g id="text_7">
      <!-- 60 -->
      <g transform="translate(340.860268 254.356562)scale(0.1 -0.1)">
       <defs>
        <path id="DejaVuSans-36" d="M 2113 2584 
Q 1688 2584 1439 2293 
Q 1191 2003 1191 1497 
Q 1191 994 1439 701 
Q 1688 409 2113 409 
Q 2538 409 2786 701 
Q 3034 994 3034 1497 
Q 3034 2003 2786 2293 
Q 2538 2584 2113 2584 
z
M 3366 4563 
L 3366 3988 
Q 3128 4100 2886 4159 
Q 2644 4219 2406 4219 
Q 1781 4219 1451 3797 
Q 1122 3375 1075 2522 
Q 1259 2794 1537 2939 
Q 1816 3084 2150 3084 
Q 2853 3084 3261 2657 
Q 3669 2231 3669 1497 
Q 3669 778 3244 343 
Q 2819 -91 2113 -91 
Q 1303 -91 875 529 
Q 447 1150 447 2328 
Q 447 3434 972 4092 
Q 1497 4750 2381 4750 
Q 2619 4750 2861 4703 
Q 3103 4656 3366 4563 
z
" transform="scale(0.015625)"/>
       </defs>
       <use xlink:href="#DejaVuSans-36"/>
       <use xlink:href="#DejaVuSans-30" x="63.623047"/>
      </g>
     </g>
    </g>
    <g id="text_8">
     <!-- numThreads -->
     <g transform="translate(183.072656 268.034687)scale(0.1 -0.1)">
      <defs>
       <path id="DejaVuSans-6e" d="M 3513 2113 
L 3513 0 
L 2938 0 
L 2938 2094 
Q 2938 2591 2744 2837 
Q 2550 3084 2163 3084 
Q 1697 3084 1428 2787 
Q 1159 2491 1159 1978 
L 1159 0 
L 581 0 
L 581 3500 
L 1159 3500 
L 1159 2956 
Q 1366 3272 1645 3428 
Q 1925 3584 2291 3584 
Q 2894 3584 3203 3211 
Q 3513 2838 3513 2113 
z
" transform="scale(0.015625)"/>
       <path id="DejaVuSans-75" d="M 544 1381 
L 544 3500 
L 1119 3500 
L 1119 1403 
Q 1119 906 1312 657 
Q 1506 409 1894 409 
Q 2359 409 2629 706 
Q 2900 1003 2900 1516 
L 2900 3500 
L 3475 3500 
L 3475 0 
L 2900 0 
L 2900 538 
Q 2691 219 2414 64 
Q 2138 -91 1772 -91 
Q 1169 -91 856 284 
Q 544 659 544 1381 
z
M 1991 3584 
L 1991 3584 
z
" transform="scale(0.015625)"/>
       <path id="DejaVuSans-6d" d="M 3328 2828 
Q 3544 3216 3844 3400 
Q 4144 3584 4550 3584 
Q 5097 3584 5394 3201 
Q 5691 2819 5691 2113 
L 5691 0 
L 5113 0 
L 5113 2094 
Q 5113 2597 4934 2840 
Q 4756 3084 4391 3084 
Q 3944 3084 3684 2787 
Q 3425 2491 3425 1978 
L 3425 0 
L 2847 0 
L 2847 2094 
Q 2847 2600 2669 2842 
Q 2491 3084 2119 3084 
Q 1678 3084 1418 2786 
Q 1159 2488 1159 1978 
L 1159 0 
L 581 0 
L 581 3500 
L 1159 3500 
L 1159 2956 
Q 1356 3278 1631 3431 
Q 1906 3584 2284 3584 
Q 2666 3584 2933 3390 
Q 3200 3197 3328 2828 
z
" transform="scale(0.015625)"/>
       <path id="DejaVuSans-54" d="M -19 4666 
L 3928 4666 
L 3928 4134 
L 2272 4134 
L 2272 0 
L 1638 0 
L 1638 4134 
L -19 4134 
L -19 4666 
z
" transform="scale(0.015625)"/>
       <path id="DejaVuSans-68" d="M 3513 2113 
L 3513 0 
L 2938 0 
L 2938 2094 
Q 2938 2591 2744 2837 
Q 2550 3084 2163 3084 
Q 1697 3084 1428 2787 
Q 1159 2491 1159 1978 
L 1159 0 
L 581 0 
L 581 4863 
L 1159 4863 
L 1159 2956 
Q 1366 3272 1645 3428 
Q 1925 3584 2291 3584 
Q 2894 3584 3203 3211 
Q 3513 2838 3513 2113 
z
" transform="scale(0.015625)"/>
       <path id="DejaVuSans-72" d="M 2631 2963 
Q 2534 3019 2420 3045 
Q 2306 3072 2169 3072 
Q 1681 3072 1420 2755 
Q 1159 2438 1159 1844 
L 1159 0 
L 581 0 
L 581 3500 
L 1159 3500 
L 1159 2956 
Q 1341 3275 1631 3429 
Q 1922 3584 2338 3584 
Q 2397 3584 2469 3576 
Q 2541 3569 2628 3553 
L 2631 2963 
z
" transform="scale(0.015625)"/>
       <path id="DejaVuSans-65" d="M 3597 1894 
L 3597 1613 
L 953 1613 
Q 991 1019 1311 708 
Q 1631 397 2203 397 
Q 2534 397 2845 478 
Q 3156 559 3463 722 
L 3463 178 
Q 3153 47 2828 -22 
Q 2503 -91 2169 -91 
Q 1331 -91 842 396 
Q 353 884 353 1716 
Q 353 2575 817 3079 
Q 1281 3584 2069 3584 
Q 2775 3584 3186 3129 
Q 3597 2675 3597 1894 
z
M 3022 2063 
Q 3016 2534 2758 2815 
Q 2500 3097 2075 3097 
Q 1594 3097 1305 2825 
Q 1016 2553 972 2059 
L 3022 2063 
z
" transform="scale(0.015625)"/>
       <path id="DejaVuSans-61" d="M 2194 1759 
Q 1497 1759 1228 1600 
Q 959 1441 959 1056 
Q 959 750 1161 570 
Q 1363 391 1709 391 
Q 2188 391 2477 730 
Q 2766 1069 2766 1631 
L 2766 1759 
L 2194 1759 
z
M 3341 1997 
L 3341 0 
L 2766 0 
L 2766 531 
Q 2569 213 2275 61 
Q 1981 -91 1556 -91 
Q 1019 -91 701 211 
Q 384 513 384 1019 
Q 384 1609 779 1909 
Q 1175 2209 1959 2209 
L 2766 2209 
L 2766 2266 
Q 2766 2663 2505 2880 
Q 2244 3097 1772 3097 
Q 1472 3097 1187 3025 
Q 903 2953 641 2809 
L 641 3341 
Q 956 3463 1253 3523 
Q 1550 3584 1831 3584 
Q 2591 3584 2966 3190 
Q 3341 2797 3341 1997 
z
" transform="scale(0.015625)"/>
       <path id="DejaVuSans-64" d="M 2906 2969 
L 2906 4863 
L 3481 4863 
L 3481 0 
L 2906 0 
L 2906 525 
Q 2725 213 2448 61 
Q 2172 -91 1784 -91 
Q 1150 -91 751 415 
Q 353 922 353 1747 
Q 353 2572 751 3078 
Q 1150 3584 1784 3584 
Q 2172 3584 2448 3432 
Q 2725 3281 2906 2969 
z
M 947 1747 
Q 947 1113 1208 752 
Q 1469 391 1925 391 
Q 2381 391 2643 752 
Q 2906 1113 2906 1747 
Q 2906 2381 2643 2742 
Q 2381 3103 1925 3103 
Q 1469 3103 1208 2742 
Q 947 2381 947 1747 
z
" transform="scale(0.015625)"/>
       <path id="DejaVuSans-73" d="M 2834 3397 
L 2834 2853 
Q 2591 2978 2328 3040 
Q 2066 3103 1784 3103 
Q 1356 3103 1142 2972 
Q 928 2841 928 2578 
Q 928 2378 1081 2264 
Q 1234 2150 1697 2047 
L 1894 2003 
Q 2506 1872 2764 1633 
Q 3022 1394 3022 966 
Q 3022 478 2636 193 
Q 2250 -91 1575 -91 
Q 1294 -91 989 -36 
Q 684 19 347 128 
L 347 722 
Q 666 556 975 473 
Q 1284 391 1588 391 
Q 1994 391 2212 530 
Q 2431 669 2431 922 
Q 2431 1156 2273 1281 
Q 2116 1406 1581 1522 
L 1381 1569 
Q 847 1681 609 1914 
Q 372 2147 372 2553 
Q 372 3047 722 3315 
Q 1072 3584 1716 3584 
Q 2034 3584 2315 3537 
Q 2597 3491 2834 3397 
z
" transform="scale(0.015625)"/>
      </defs>
      <use xlink:href="#DejaVuSans-6e"/>
      <use xlink:href="#DejaVuSans-75" x="63.378906"/>
      <use xlink:href="#DejaVuSans-6d" x="126.757812"/>
      <use xlink:href="#DejaVuSans-54" x="224.169922"/>
      <use xlink:href="#DejaVuSans-68" x="285.253906"/>
      <use xlink:href="#DejaVuSans-72" x="348.632812"/>
      <use xlink:href="#DejaVuSans-65" x="387.496094"/>
      <use xlink:href="#DejaVuSans-61" x="449.019531"/>
      <use xlink:href="#DejaVuSans-64" x="510.298828"/>
      <use xlink:href="#DejaVuSans-73" x="573.775391"/>
     </g>
    </g>
   </g>
   <g id="matplotlib.axis_2">
    <g id="ytick_1">
     <g id="line2d_15">
      <path d="M 46.965625 198.552594 
L 381.765625 198.552594 
" clip-path="url(#pde5fde2b4f)" style="fill: none; stroke: #b0b0b0; stroke-width: 0.8; stroke-linecap: square"/>
     </g>
     <g id="line2d_16">
      <defs>
       <path id="m7ead216d02" d="M 0 0 
L -3.5 0 
" style="stroke: #000000; stroke-width: 0.8"/>
      </defs>
      <g>
       <use xlink:href="#m7ead216d02" x="46.965625" y="198.552594" style="stroke: #000000; stroke-width: 0.8"/>
      </g>
     </g>
     <g id="text_9">
      <!-- 20 -->
      <g transform="translate(27.240625 202.351813)scale(0.1 -0.1)">
       <use xlink:href="#DejaVuSans-32"/>
       <use xlink:href="#DejaVuSans-30" x="63.623047"/>
      </g>
     </g>
    </g>
    <g id="ytick_2">
     <g id="line2d_17">
      <path d="M 46.965625 157.011619 
L 381.765625 157.011619 
" clip-path="url(#pde5fde2b4f)" style="fill: none; stroke: #b0b0b0; stroke-width: 0.8; stroke-linecap: square"/>
     </g>
     <g id="line2d_18">
      <g>
       <use xlink:href="#m7ead216d02" x="46.965625" y="157.011619" style="stroke: #000000; stroke-width: 0.8"/>
      </g>
     </g>
     <g id="text_10">
      <!-- 40 -->
      <g transform="translate(27.240625 160.810838)scale(0.1 -0.1)">
       <use xlink:href="#DejaVuSans-34"/>
       <use xlink:href="#DejaVuSans-30" x="63.623047"/>
      </g>
     </g>
    </g>
    <g id="ytick_3">
     <g id="line2d_19">
      <path d="M 46.965625 115.470645 
L 381.765625 115.470645 
" clip-path="url(#pde5fde2b4f)" style="fill: none; stroke: #b0b0b0; stroke-width: 0.8; stroke-linecap: square"/>
     </g>
     <g id="line2d_20">
      <g>
       <use xlink:href="#m7ead216d02" x="46.965625" y="115.470645" style="stroke: #000000; stroke-width: 0.8"/>
      </g>
     </g>
     <g id="text_11">
      <!-- 60 -->
      <g transform="translate(27.240625 119.269864)scale(0.1 -0.1)">
       <use xlink:href="#DejaVuSans-36"/>
       <use xlink:href="#DejaVuSans-30" x="63.623047"/>
      </g>
     </g>
    </g>
    <g id="ytick_4">
     <g id="line2d_21">
      <path d="M 46.965625 73.92967 
L 381.765625 73.92967 
" clip-path="url(#pde5fde2b4f)" style="fill: none; stroke: #b0b0b0; stroke-width: 0.8; stroke-linecap: square"/>
     </g>
     <g id="line2d_22">
      <g>
       <use xlink:href="#m7ead216d02" x="46.965625" y="73.92967" style="stroke: #000000; stroke-width: 0.8"/>
      </g>
     </g>
     <g id="text_12">
      <!-- 80 -->
      <g transform="translate(27.240625 77.728889)scale(0.1 -0.1)">
       <defs>
        <path id="DejaVuSans-38" d="M 2034 2216 
Q 1584 2216 1326 1975 
Q 1069 1734 1069 1313 
Q 1069 891 1326 650 
Q 1584 409 2034 409 
Q 2484 409 2743 651 
Q 3003 894 3003 1313 
Q 3003 1734 2745 1975 
Q 2488 2216 2034 2216 
z
M 1403 2484 
Q 997 2584 770 2862 
Q 544 3141 544 3541 
Q 544 4100 942 4425 
Q 1341 4750 2034 4750 
Q 2731 4750 3128 4425 
Q 3525 4100 3525 3541 
Q 3525 3141 3298 2862 
Q 3072 2584 2669 2484 
Q 3125 2378 3379 2068 
Q 3634 1759 3634 1313 
Q 3634 634 3220 271 
Q 2806 -91 2034 -91 
Q 1263 -91 848 271 
Q 434 634 434 1313 
Q 434 1759 690 2068 
Q 947 2378 1403 2484 
z
M 1172 3481 
Q 1172 3119 1398 2916 
Q 1625 2713 2034 2713 
Q 2441 2713 2670 2916 
Q 2900 3119 2900 3481 
Q 2900 3844 2670 4047 
Q 2441 4250 2034 4250 
Q 1625 4250 1398 4047 
Q 1172 3844 1172 3481 
z
" transform="scale(0.015625)"/>
       </defs>
       <use xlink:href="#DejaVuSans-38"/>
       <use xlink:href="#DejaVuSans-30" x="63.623047"/>
      </g>
     </g>
    </g>
    <g id="ytick_5">
     <g id="line2d_23">
      <path d="M 46.965625 32.388696 
L 381.765625 32.388696 
" clip-path="url(#pde5fde2b4f)" style="fill: none; stroke: #b0b0b0; stroke-width: 0.8; stroke-linecap: square"/>
     </g>
     <g id="line2d_24">
      <g>
       <use xlink:href="#m7ead216d02" x="46.965625" y="32.388696" style="stroke: #000000; stroke-width: 0.8"/>
      </g>
     </g>
     <g id="text_13">
      <!-- 100 -->
      <g transform="translate(20.878125 36.187914)scale(0.1 -0.1)">
       <use xlink:href="#DejaVuSans-31"/>
       <use xlink:href="#DejaVuSans-30" x="63.623047"/>
       <use xlink:href="#DejaVuSans-30" x="127.246094"/>
      </g>
     </g>
    </g>
    <g id="text_14">
     <!-- speed up rate -->
     <g transform="translate(14.798438 165.821719)rotate(-90)scale(0.1 -0.1)">
      <defs>
       <path id="DejaVuSans-70" d="M 1159 525 
L 1159 -1331 
L 581 -1331 
L 581 3500 
L 1159 3500 
L 1159 2969 
Q 1341 3281 1617 3432 
Q 1894 3584 2278 3584 
Q 2916 3584 3314 3078 
Q 3713 2572 3713 1747 
Q 3713 922 3314 415 
Q 2916 -91 2278 -91 
Q 1894 -91 1617 61 
Q 1341 213 1159 525 
z
M 3116 1747 
Q 3116 2381 2855 2742 
Q 2594 3103 2138 3103 
Q 1681 3103 1420 2742 
Q 1159 2381 1159 1747 
Q 1159 1113 1420 752 
Q 1681 391 2138 391 
Q 2594 391 2855 752 
Q 3116 1113 3116 1747 
z
" transform="scale(0.015625)"/>
       <path id="DejaVuSans-20" transform="scale(0.015625)"/>
       <path id="DejaVuSans-74" d="M 1172 4494 
L 1172 3500 
L 2356 3500 
L 2356 3053 
L 1172 3053 
L 1172 1153 
Q 1172 725 1289 603 
Q 1406 481 1766 481 
L 2356 481 
L 2356 0 
L 1766 0 
Q 1100 0 847 248 
Q 594 497 594 1153 
L 594 3053 
L 172 3053 
L 172 3500 
L 594 3500 
L 594 4494 
L 1172 4494 
z
" transform="scale(0.015625)"/>
      </defs>
      <use xlink:href="#DejaVuSans-73"/>
      <use xlink:href="#DejaVuSans-70" x="52.099609"/>
      <use xlink:href="#DejaVuSans-65" x="115.576172"/>
      <use xlink:href="#DejaVuSans-65" x="177.099609"/>
      <use xlink:href="#DejaVuSans-64" x="238.623047"/>
      <use xlink:href="#DejaVuSans-20" x="302.099609"/>
      <use xlink:href="#DejaVuSans-75" x="333.886719"/>
      <use xlink:href="#DejaVuSans-70" x="397.265625"/>
      <use xlink:href="#DejaVuSans-20" x="460.742188"/>
      <use xlink:href="#DejaVuSans-72" x="492.529297"/>
      <use xlink:href="#DejaVuSans-61" x="533.642578"/>
      <use xlink:href="#DejaVuSans-74" x="594.921875"/>
      <use xlink:href="#DejaVuSans-65" x="634.130859"/>
     </g>
    </g>
   </g>
   <g id="line2d_25">
    <path d="M 62.183807 227.942833 
L 67.014976 216.062115 
L 71.846144 219.800802 
L 76.677313 210.32946 
L 81.508482 209.124772 
L 86.339651 199.715741 
L 91.17082 198.178725 
L 96.001989 189.704366 
L 100.833157 186.484941 
L 105.664326 184.075564 
L 110.495495 177.678254 
L 115.326664 177.595172 
L 120.157833 169.723158 
L 124.989002 164.322831 
L 129.82017 159.981799 
L 134.651339 159.628701 
L 139.482508 152.836751 
L 144.313677 151.008949 
L 149.144846 144.23777 
L 153.976015 134.267936 
L 158.807183 134.267936 
L 163.638352 125.980511 
L 168.469521 124.6512 
L 173.30069 157.385488 
L 178.131859 127.392904 
L 182.963028 142.721524 
L 187.794196 100.661287 
L 192.625365 96.008698 
L 197.456534 123.197266 
L 202.287703 136.905788 
L 207.118872 109.613367 
L 211.950041 82.528652 
L 216.781209 72.911916 
L 221.612378 83.920275 
L 226.443547 80.347751 
L 231.274716 81.531669 
L 236.105885 66.805393 
L 240.937054 109.634138 
L 245.768222 61.488148 
L 250.599391 107.18322 
L 255.43056 96.818747 
L 260.261729 71.416441 
L 265.092898 135.327231 
L 269.924067 106.393942 
L 274.755235 94.36783 
L 279.586404 55.547789 
L 284.417573 58.123329 
L 289.248742 42.130054 
L 294.079911 42.233907 
L 298.91108 41.361546 
L 303.742248 109.800302 
L 308.573417 112.791252 
L 313.404586 91.709207 
L 318.235755 110.298793 
L 323.066924 32.201761 
L 327.898093 78.956128 
L 332.729261 120.330939 
L 337.56043 115.740661 
L 342.391599 52.245282 
L 347.222768 77.585276 
L 352.053937 134.517182 
L 356.885106 39.990694 
L 361.716274 104.503828 
L 366.547443 59.203395 
" clip-path="url(#pde5fde2b4f)" style="fill: none; stroke: #1f77b4; stroke-width: 1.5; stroke-linecap: square"/>
    <defs>
     <path id="m32375062fb" d="M 0 1.75 
C 0.464105 1.75 0.909265 1.565609 1.237437 1.237437 
C 1.565609 0.909265 1.75 0.464105 1.75 0 
C 1.75 -0.464105 1.565609 -0.909265 1.237437 -1.237437 
C 0.909265 -1.565609 0.464105 -1.75 0 -1.75 
C -0.464105 -1.75 -0.909265 -1.565609 -1.237437 -1.237437 
C -1.565609 -0.909265 -1.75 -0.464105 -1.75 0 
C -1.75 0.464105 -1.565609 0.909265 -1.237437 1.237437 
C -0.909265 1.565609 -0.464105 1.75 0 1.75 
z
" style="stroke: #1f77b4"/>
    </defs>
    <g clip-path="url(#pde5fde2b4f)">
     <use xlink:href="#m32375062fb" x="62.183807" y="227.942833" style="fill: #1f77b4; stroke: #1f77b4"/>
     <use xlink:href="#m32375062fb" x="67.014976" y="216.062115" style="fill: #1f77b4; stroke: #1f77b4"/>
     <use xlink:href="#m32375062fb" x="71.846144" y="219.800802" style="fill: #1f77b4; stroke: #1f77b4"/>
     <use xlink:href="#m32375062fb" x="76.677313" y="210.32946" style="fill: #1f77b4; stroke: #1f77b4"/>
     <use xlink:href="#m32375062fb" x="81.508482" y="209.124772" style="fill: #1f77b4; stroke: #1f77b4"/>
     <use xlink:href="#m32375062fb" x="86.339651" y="199.715741" style="fill: #1f77b4; stroke: #1f77b4"/>
     <use xlink:href="#m32375062fb" x="91.17082" y="198.178725" style="fill: #1f77b4; stroke: #1f77b4"/>
     <use xlink:href="#m32375062fb" x="96.001989" y="189.704366" style="fill: #1f77b4; stroke: #1f77b4"/>
     <use xlink:href="#m32375062fb" x="100.833157" y="186.484941" style="fill: #1f77b4; stroke: #1f77b4"/>
     <use xlink:href="#m32375062fb" x="105.664326" y="184.075564" style="fill: #1f77b4; stroke: #1f77b4"/>
     <use xlink:href="#m32375062fb" x="110.495495" y="177.678254" style="fill: #1f77b4; stroke: #1f77b4"/>
     <use xlink:href="#m32375062fb" x="115.326664" y="177.595172" style="fill: #1f77b4; stroke: #1f77b4"/>
     <use xlink:href="#m32375062fb" x="120.157833" y="169.723158" style="fill: #1f77b4; stroke: #1f77b4"/>
     <use xlink:href="#m32375062fb" x="124.989002" y="164.322831" style="fill: #1f77b4; stroke: #1f77b4"/>
     <use xlink:href="#m32375062fb" x="129.82017" y="159.981799" style="fill: #1f77b4; stroke: #1f77b4"/>
     <use xlink:href="#m32375062fb" x="134.651339" y="159.628701" style="fill: #1f77b4; stroke: #1f77b4"/>
     <use xlink:href="#m32375062fb" x="139.482508" y="152.836751" style="fill: #1f77b4; stroke: #1f77b4"/>
     <use xlink:href="#m32375062fb" x="144.313677" y="151.008949" style="fill: #1f77b4; stroke: #1f77b4"/>
     <use xlink:href="#m32375062fb" x="149.144846" y="144.23777" style="fill: #1f77b4; stroke: #1f77b4"/>
     <use xlink:href="#m32375062fb" x="153.976015" y="134.267936" style="fill: #1f77b4; stroke: #1f77b4"/>
     <use xlink:href="#m32375062fb" x="158.807183" y="134.267936" style="fill: #1f77b4; stroke: #1f77b4"/>
     <use xlink:href="#m32375062fb" x="163.638352" y="125.980511" style="fill: #1f77b4; stroke: #1f77b4"/>
     <use xlink:href="#m32375062fb" x="168.469521" y="124.6512" style="fill: #1f77b4; stroke: #1f77b4"/>
     <use xlink:href="#m32375062fb" x="173.30069" y="157.385488" style="fill: #1f77b4; stroke: #1f77b4"/>
     <use xlink:href="#m32375062fb" x="178.131859" y="127.392904" style="fill: #1f77b4; stroke: #1f77b4"/>
     <use xlink:href="#m32375062fb" x="182.963028" y="142.721524" style="fill: #1f77b4; stroke: #1f77b4"/>
     <use xlink:href="#m32375062fb" x="187.794196" y="100.661287" style="fill: #1f77b4; stroke: #1f77b4"/>
     <use xlink:href="#m32375062fb" x="192.625365" y="96.008698" style="fill: #1f77b4; stroke: #1f77b4"/>
     <use xlink:href="#m32375062fb" x="197.456534" y="123.197266" style="fill: #1f77b4; stroke: #1f77b4"/>
     <use xlink:href="#m32375062fb" x="202.287703" y="136.905788" style="fill: #1f77b4; stroke: #1f77b4"/>
     <use xlink:href="#m32375062fb" x="207.118872" y="109.613367" style="fill: #1f77b4; stroke: #1f77b4"/>
     <use xlink:href="#m32375062fb" x="211.950041" y="82.528652" style="fill: #1f77b4; stroke: #1f77b4"/>
     <use xlink:href="#m32375062fb" x="216.781209" y="72.911916" style="fill: #1f77b4; stroke: #1f77b4"/>
     <use xlink:href="#m32375062fb" x="221.612378" y="83.920275" style="fill: #1f77b4; stroke: #1f77b4"/>
     <use xlink:href="#m32375062fb" x="226.443547" y="80.347751" style="fill: #1f77b4; stroke: #1f77b4"/>
     <use xlink:href="#m32375062fb" x="231.274716" y="81.531669" style="fill: #1f77b4; stroke: #1f77b4"/>
     <use xlink:href="#m32375062fb" x="236.105885" y="66.805393" style="fill: #1f77b4; stroke: #1f77b4"/>
     <use xlink:href="#m32375062fb" x="240.937054" y="109.634138" style="fill: #1f77b4; stroke: #1f77b4"/>
     <use xlink:href="#m32375062fb" x="245.768222" y="61.488148" style="fill: #1f77b4; stroke: #1f77b4"/>
     <use xlink:href="#m32375062fb" x="250.599391" y="107.18322" style="fill: #1f77b4; stroke: #1f77b4"/>
     <use xlink:href="#m32375062fb" x="255.43056" y="96.818747" style="fill: #1f77b4; stroke: #1f77b4"/>
     <use xlink:href="#m32375062fb" x="260.261729" y="71.416441" style="fill: #1f77b4; stroke: #1f77b4"/>
     <use xlink:href="#m32375062fb" x="265.092898" y="135.327231" style="fill: #1f77b4; stroke: #1f77b4"/>
     <use xlink:href="#m32375062fb" x="269.924067" y="106.393942" style="fill: #1f77b4; stroke: #1f77b4"/>
     <use xlink:href="#m32375062fb" x="274.755235" y="94.36783" style="fill: #1f77b4; stroke: #1f77b4"/>
     <use xlink:href="#m32375062fb" x="279.586404" y="55.547789" style="fill: #1f77b4; stroke: #1f77b4"/>
     <use xlink:href="#m32375062fb" x="284.417573" y="58.123329" style="fill: #1f77b4; stroke: #1f77b4"/>
     <use xlink:href="#m32375062fb" x="289.248742" y="42.130054" style="fill: #1f77b4; stroke: #1f77b4"/>
     <use xlink:href="#m32375062fb" x="294.079911" y="42.233907" style="fill: #1f77b4; stroke: #1f77b4"/>
     <use xlink:href="#m32375062fb" x="298.91108" y="41.361546" style="fill: #1f77b4; stroke: #1f77b4"/>
     <use xlink:href="#m32375062fb" x="303.742248" y="109.800302" style="fill: #1f77b4; stroke: #1f77b4"/>
     <use xlink:href="#m32375062fb" x="308.573417" y="112.791252" style="fill: #1f77b4; stroke: #1f77b4"/>
     <use xlink:href="#m32375062fb" x="313.404586" y="91.709207" style="fill: #1f77b4; stroke: #1f77b4"/>
     <use xlink:href="#m32375062fb" x="318.235755" y="110.298793" style="fill: #1f77b4; stroke: #1f77b4"/>
     <use xlink:href="#m32375062fb" x="323.066924" y="32.201761" style="fill: #1f77b4; stroke: #1f77b4"/>
     <use xlink:href="#m32375062fb" x="327.898093" y="78.956128" style="fill: #1f77b4; stroke: #1f77b4"/>
     <use xlink:href="#m32375062fb" x="332.729261" y="120.330939" style="fill: #1f77b4; stroke: #1f77b4"/>
     <use xlink:href="#m32375062fb" x="337.56043" y="115.740661" style="fill: #1f77b4; stroke: #1f77b4"/>
     <use xlink:href="#m32375062fb" x="342.391599" y="52.245282" style="fill: #1f77b4; stroke: #1f77b4"/>
     <use xlink:href="#m32375062fb" x="347.222768" y="77.585276" style="fill: #1f77b4; stroke: #1f77b4"/>
     <use xlink:href="#m32375062fb" x="352.053937" y="134.517182" style="fill: #1f77b4; stroke: #1f77b4"/>
     <use xlink:href="#m32375062fb" x="356.885106" y="39.990694" style="fill: #1f77b4; stroke: #1f77b4"/>
     <use xlink:href="#m32375062fb" x="361.716274" y="104.503828" style="fill: #1f77b4; stroke: #1f77b4"/>
     <use xlink:href="#m32375062fb" x="366.547443" y="59.203395" style="fill: #1f77b4; stroke: #1f77b4"/>
    </g>
   </g>
   <g id="line2d_26">
    <path d="M 62.183807 229.874489 
L 67.014976 222.916375 
L 71.846144 217.931458 
L 76.677313 213.361951 
L 81.508482 209.997132 
L 86.339651 206.840018 
L 91.17082 202.291282 
L 96.001989 199.175708 
L 100.833157 194.606201 
L 105.664326 190.265169 
L 110.495495 186.4434 
L 115.326664 182.787794 
L 120.157833 172.859501 
L 124.989002 171.820977 
L 129.82017 170.533207 
L 134.651339 184.387122 
L 139.482508 182.019286 
L 144.313677 158.216308 
L 149.144846 168.954649 
L 153.976015 164.052815 
L 158.807183 175.061173 
L 163.638352 169.577764 
L 168.469521 165.56906 
L 173.30069 165.693683 
L 178.131859 157.406259 
L 182.963028 148.911129 
L 187.794196 149.513473 
L 192.625365 159.898717 
L 197.456534 144.777802 
L 202.287703 148.059539 
L 207.118872 140.43677 
L 211.950041 177.05514 
L 216.781209 158.797881 
L 221.612378 162.640421 
L 226.443547 140.602934 
L 231.274716 130.259232 
L 236.105885 141.26759 
L 240.937054 134.787198 
L 245.768222 129.490724 
L 250.599391 135.991886 
L 255.43056 124.256561 
L 260.261729 146.771769 
L 265.092898 126.33361 
L 269.924067 128.659904 
L 274.755235 128.535281 
L 279.586404 121.452545 
L 284.417573 154.934571 
L 289.248742 135.098755 
L 294.079911 126.042823 
L 298.91108 130.321543 
L 303.742248 133.291723 
L 308.573417 114.494432 
L 313.404586 141.371442 
L 318.235755 113.206662 
L 323.066924 110.319564 
L 327.898093 110.714203 
L 332.729261 143.510803 
L 337.56043 150.925867 
L 342.391599 140.706787 
L 347.222768 117.069972 
L 352.053937 108.574843 
L 356.885106 112.355072 
L 361.716274 142.659213 
L 366.547443 158.257849 
" clip-path="url(#pde5fde2b4f)" style="fill: none; stroke: #ff7f0e; stroke-width: 1.5; stroke-linecap: square"/>
    <defs>
     <path id="m42420ab6c2" d="M 0 1.75 
C 0.464105 1.75 0.909265 1.565609 1.237437 1.237437 
C 1.565609 0.909265 1.75 0.464105 1.75 0 
C 1.75 -0.464105 1.565609 -0.909265 1.237437 -1.237437 
C 0.909265 -1.565609 0.464105 -1.75 0 -1.75 
C -0.464105 -1.75 -0.909265 -1.565609 -1.237437 -1.237437 
C -1.565609 -0.909265 -1.75 -0.464105 -1.75 0 
C -1.75 0.464105 -1.565609 0.909265 -1.237437 1.237437 
C -0.909265 1.565609 -0.464105 1.75 0 1.75 
z
" style="stroke: #ff7f0e"/>
    </defs>
    <g clip-path="url(#pde5fde2b4f)">
     <use xlink:href="#m42420ab6c2" x="62.183807" y="229.874489" style="fill: #ff7f0e; stroke: #ff7f0e"/>
     <use xlink:href="#m42420ab6c2" x="67.014976" y="222.916375" style="fill: #ff7f0e; stroke: #ff7f0e"/>
     <use xlink:href="#m42420ab6c2" x="71.846144" y="217.931458" style="fill: #ff7f0e; stroke: #ff7f0e"/>
     <use xlink:href="#m42420ab6c2" x="76.677313" y="213.361951" style="fill: #ff7f0e; stroke: #ff7f0e"/>
     <use xlink:href="#m42420ab6c2" x="81.508482" y="209.997132" style="fill: #ff7f0e; stroke: #ff7f0e"/>
     <use xlink:href="#m42420ab6c2" x="86.339651" y="206.840018" style="fill: #ff7f0e; stroke: #ff7f0e"/>
     <use xlink:href="#m42420ab6c2" x="91.17082" y="202.291282" style="fill: #ff7f0e; stroke: #ff7f0e"/>
     <use xlink:href="#m42420ab6c2" x="96.001989" y="199.175708" style="fill: #ff7f0e; stroke: #ff7f0e"/>
     <use xlink:href="#m42420ab6c2" x="100.833157" y="194.606201" style="fill: #ff7f0e; stroke: #ff7f0e"/>
     <use xlink:href="#m42420ab6c2" x="105.664326" y="190.265169" style="fill: #ff7f0e; stroke: #ff7f0e"/>
     <use xlink:href="#m42420ab6c2" x="110.495495" y="186.4434" style="fill: #ff7f0e; stroke: #ff7f0e"/>
     <use xlink:href="#m42420ab6c2" x="115.326664" y="182.787794" style="fill: #ff7f0e; stroke: #ff7f0e"/>
     <use xlink:href="#m42420ab6c2" x="120.157833" y="172.859501" style="fill: #ff7f0e; stroke: #ff7f0e"/>
     <use xlink:href="#m42420ab6c2" x="124.989002" y="171.820977" style="fill: #ff7f0e; stroke: #ff7f0e"/>
     <use xlink:href="#m42420ab6c2" x="129.82017" y="170.533207" style="fill: #ff7f0e; stroke: #ff7f0e"/>
     <use xlink:href="#m42420ab6c2" x="134.651339" y="184.387122" style="fill: #ff7f0e; stroke: #ff7f0e"/>
     <use xlink:href="#m42420ab6c2" x="139.482508" y="182.019286" style="fill: #ff7f0e; stroke: #ff7f0e"/>
     <use xlink:href="#m42420ab6c2" x="144.313677" y="158.216308" style="fill: #ff7f0e; stroke: #ff7f0e"/>
     <use xlink:href="#m42420ab6c2" x="149.144846" y="168.954649" style="fill: #ff7f0e; stroke: #ff7f0e"/>
     <use xlink:href="#m42420ab6c2" x="153.976015" y="164.052815" style="fill: #ff7f0e; stroke: #ff7f0e"/>
     <use xlink:href="#m42420ab6c2" x="158.807183" y="175.061173" style="fill: #ff7f0e; stroke: #ff7f0e"/>
     <use xlink:href="#m42420ab6c2" x="163.638352" y="169.577764" style="fill: #ff7f0e; stroke: #ff7f0e"/>
     <use xlink:href="#m42420ab6c2" x="168.469521" y="165.56906" style="fill: #ff7f0e; stroke: #ff7f0e"/>
     <use xlink:href="#m42420ab6c2" x="173.30069" y="165.693683" style="fill: #ff7f0e; stroke: #ff7f0e"/>
     <use xlink:href="#m42420ab6c2" x="178.131859" y="157.406259" style="fill: #ff7f0e; stroke: #ff7f0e"/>
     <use xlink:href="#m42420ab6c2" x="182.963028" y="148.911129" style="fill: #ff7f0e; stroke: #ff7f0e"/>
     <use xlink:href="#m42420ab6c2" x="187.794196" y="149.513473" style="fill: #ff7f0e; stroke: #ff7f0e"/>
     <use xlink:href="#m42420ab6c2" x="192.625365" y="159.898717" style="fill: #ff7f0e; stroke: #ff7f0e"/>
     <use xlink:href="#m42420ab6c2" x="197.456534" y="144.777802" style="fill: #ff7f0e; stroke: #ff7f0e"/>
     <use xlink:href="#m42420ab6c2" x="202.287703" y="148.059539" style="fill: #ff7f0e; stroke: #ff7f0e"/>
     <use xlink:href="#m42420ab6c2" x="207.118872" y="140.43677" style="fill: #ff7f0e; stroke: #ff7f0e"/>
     <use xlink:href="#m42420ab6c2" x="211.950041" y="177.05514" style="fill: #ff7f0e; stroke: #ff7f0e"/>
     <use xlink:href="#m42420ab6c2" x="216.781209" y="158.797881" style="fill: #ff7f0e; stroke: #ff7f0e"/>
     <use xlink:href="#m42420ab6c2" x="221.612378" y="162.640421" style="fill: #ff7f0e; stroke: #ff7f0e"/>
     <use xlink:href="#m42420ab6c2" x="226.443547" y="140.602934" style="fill: #ff7f0e; stroke: #ff7f0e"/>
     <use xlink:href="#m42420ab6c2" x="231.274716" y="130.259232" style="fill: #ff7f0e; stroke: #ff7f0e"/>
     <use xlink:href="#m42420ab6c2" x="236.105885" y="141.26759" style="fill: #ff7f0e; stroke: #ff7f0e"/>
     <use xlink:href="#m42420ab6c2" x="240.937054" y="134.787198" style="fill: #ff7f0e; stroke: #ff7f0e"/>
     <use xlink:href="#m42420ab6c2" x="245.768222" y="129.490724" style="fill: #ff7f0e; stroke: #ff7f0e"/>
     <use xlink:href="#m42420ab6c2" x="250.599391" y="135.991886" style="fill: #ff7f0e; stroke: #ff7f0e"/>
     <use xlink:href="#m42420ab6c2" x="255.43056" y="124.256561" style="fill: #ff7f0e; stroke: #ff7f0e"/>
     <use xlink:href="#m42420ab6c2" x="260.261729" y="146.771769" style="fill: #ff7f0e; stroke: #ff7f0e"/>
     <use xlink:href="#m42420ab6c2" x="265.092898" y="126.33361" style="fill: #ff7f0e; stroke: #ff7f0e"/>
     <use xlink:href="#m42420ab6c2" x="269.924067" y="128.659904" style="fill: #ff7f0e; stroke: #ff7f0e"/>
     <use xlink:href="#m42420ab6c2" x="274.755235" y="128.535281" style="fill: #ff7f0e; stroke: #ff7f0e"/>
     <use xlink:href="#m42420ab6c2" x="279.586404" y="121.452545" style="fill: #ff7f0e; stroke: #ff7f0e"/>
     <use xlink:href="#m42420ab6c2" x="284.417573" y="154.934571" style="fill: #ff7f0e; stroke: #ff7f0e"/>
     <use xlink:href="#m42420ab6c2" x="289.248742" y="135.098755" style="fill: #ff7f0e; stroke: #ff7f0e"/>
     <use xlink:href="#m42420ab6c2" x="294.079911" y="126.042823" style="fill: #ff7f0e; stroke: #ff7f0e"/>
     <use xlink:href="#m42420ab6c2" x="298.91108" y="130.321543" style="fill: #ff7f0e; stroke: #ff7f0e"/>
     <use xlink:href="#m42420ab6c2" x="303.742248" y="133.291723" style="fill: #ff7f0e; stroke: #ff7f0e"/>
     <use xlink:href="#m42420ab6c2" x="308.573417" y="114.494432" style="fill: #ff7f0e; stroke: #ff7f0e"/>
     <use xlink:href="#m42420ab6c2" x="313.404586" y="141.371442" style="fill: #ff7f0e; stroke: #ff7f0e"/>
     <use xlink:href="#m42420ab6c2" x="318.235755" y="113.206662" style="fill: #ff7f0e; stroke: #ff7f0e"/>
     <use xlink:href="#m42420ab6c2" x="323.066924" y="110.319564" style="fill: #ff7f0e; stroke: #ff7f0e"/>
     <use xlink:href="#m42420ab6c2" x="327.898093" y="110.714203" style="fill: #ff7f0e; stroke: #ff7f0e"/>
     <use xlink:href="#m42420ab6c2" x="332.729261" y="143.510803" style="fill: #ff7f0e; stroke: #ff7f0e"/>
     <use xlink:href="#m42420ab6c2" x="337.56043" y="150.925867" style="fill: #ff7f0e; stroke: #ff7f0e"/>
     <use xlink:href="#m42420ab6c2" x="342.391599" y="140.706787" style="fill: #ff7f0e; stroke: #ff7f0e"/>
     <use xlink:href="#m42420ab6c2" x="347.222768" y="117.069972" style="fill: #ff7f0e; stroke: #ff7f0e"/>
     <use xlink:href="#m42420ab6c2" x="352.053937" y="108.574843" style="fill: #ff7f0e; stroke: #ff7f0e"/>
     <use xlink:href="#m42420ab6c2" x="356.885106" y="112.355072" style="fill: #ff7f0e; stroke: #ff7f0e"/>
     <use xlink:href="#m42420ab6c2" x="361.716274" y="142.659213" style="fill: #ff7f0e; stroke: #ff7f0e"/>
     <use xlink:href="#m42420ab6c2" x="366.547443" y="158.257849" style="fill: #ff7f0e; stroke: #ff7f0e"/>
    </g>
   </g>
   <g id="patch_3">
    <path d="M 46.965625 239.758125 
L 46.965625 22.318125 
" style="fill: none; stroke: #000000; stroke-width: 0.8; stroke-linejoin: miter; stroke-linecap: square"/>
   </g>
   <g id="patch_4">
    <path d="M 381.765625 239.758125 
L 381.765625 22.318125 
" style="fill: none; stroke: #000000; stroke-width: 0.8; stroke-linejoin: miter; stroke-linecap: square"/>
   </g>
   <g id="patch_5">
    <path d="M 46.965625 239.758125 
L 381.765625 239.758125 
" style="fill: none; stroke: #000000; stroke-width: 0.8; stroke-linejoin: miter; stroke-linecap: square"/>
   </g>
   <g id="patch_6">
    <path d="M 46.965625 22.318125 
L 381.765625 22.318125 
" style="fill: none; stroke: #000000; stroke-width: 0.8; stroke-linejoin: miter; stroke-linecap: square"/>
   </g>
   <g id="text_15">
    <!-- View 1 and 2 -->
    <g transform="translate(175.486563 16.318125)scale(0.12 -0.12)">
     <defs>
      <path id="DejaVuSans-56" d="M 1831 0 
L 50 4666 
L 709 4666 
L 2188 738 
L 3669 4666 
L 4325 4666 
L 2547 0 
L 1831 0 
z
" transform="scale(0.015625)"/>
      <path id="DejaVuSans-69" d="M 603 3500 
L 1178 3500 
L 1178 0 
L 603 0 
L 603 3500 
z
M 603 4863 
L 1178 4863 
L 1178 4134 
L 603 4134 
L 603 4863 
z
" transform="scale(0.015625)"/>
      <path id="DejaVuSans-77" d="M 269 3500 
L 844 3500 
L 1563 769 
L 2278 3500 
L 2956 3500 
L 3675 769 
L 4391 3500 
L 4966 3500 
L 4050 0 
L 3372 0 
L 2619 2869 
L 1863 0 
L 1184 0 
L 269 3500 
z
" transform="scale(0.015625)"/>
     </defs>
     <use xlink:href="#DejaVuSans-56"/>
     <use xlink:href="#DejaVuSans-69" x="66.158203"/>
     <use xlink:href="#DejaVuSans-65" x="93.941406"/>
     <use xlink:href="#DejaVuSans-77" x="155.464844"/>
     <use xlink:href="#DejaVuSans-20" x="237.251953"/>
     <use xlink:href="#DejaVuSans-31" x="269.039062"/>
     <use xlink:href="#DejaVuSans-20" x="332.662109"/>
     <use xlink:href="#DejaVuSans-61" x="364.449219"/>
     <use xlink:href="#DejaVuSans-6e" x="425.728516"/>
     <use xlink:href="#DejaVuSans-64" x="489.107422"/>
     <use xlink:href="#DejaVuSans-20" x="552.583984"/>
     <use xlink:href="#DejaVuSans-32" x="584.371094"/>
    </g>
   </g>
   <g id="legend_1">
    <g id="patch_7">
     <path d="M 53.965625 59.674375 
L 118.534375 59.674375 
Q 120.534375 59.674375 120.534375 57.674375 
L 120.534375 29.318125 
Q 120.534375 27.318125 118.534375 27.318125 
L 53.965625 27.318125 
Q 51.965625 27.318125 51.965625 29.318125 
L 51.965625 57.674375 
Q 51.965625 59.674375 53.965625 59.674375 
z
" style="fill: #ffffff; opacity: 0.8; stroke: #cccccc; stroke-linejoin: miter"/>
    </g>
    <g id="line2d_27">
     <path d="M 55.965625 35.416562 
L 65.965625 35.416562 
L 75.965625 35.416562 
" style="fill: none; stroke: #1f77b4; stroke-width: 1.5; stroke-linecap: square"/>
     <g>
      <use xlink:href="#m32375062fb" x="65.965625" y="35.416562" style="fill: #1f77b4; stroke: #1f77b4"/>
     </g>
    </g>
    <g id="text_16">
     <!-- view 1 -->
     <g transform="translate(83.965625 38.916562)scale(0.1 -0.1)">
      <defs>
       <path id="DejaVuSans-76" d="M 191 3500 
L 800 3500 
L 1894 563 
L 2988 3500 
L 3597 3500 
L 2284 0 
L 1503 0 
L 191 3500 
z
" transform="scale(0.015625)"/>
      </defs>
      <use xlink:href="#DejaVuSans-76"/>
      <use xlink:href="#DejaVuSans-69" x="59.179688"/>
      <use xlink:href="#DejaVuSans-65" x="86.962891"/>
      <use xlink:href="#DejaVuSans-77" x="148.486328"/>
      <use xlink:href="#DejaVuSans-20" x="230.273438"/>
      <use xlink:href="#DejaVuSans-31" x="262.060547"/>
     </g>
    </g>
    <g id="line2d_28">
     <path d="M 55.965625 50.094687 
L 65.965625 50.094687 
L 75.965625 50.094687 
" style="fill: none; stroke: #ff7f0e; stroke-width: 1.5; stroke-linecap: square"/>
     <g>
      <use xlink:href="#m42420ab6c2" x="65.965625" y="50.094687" style="fill: #ff7f0e; stroke: #ff7f0e"/>
     </g>
    </g>
    <g id="text_17">
     <!-- view 2 -->
     <g transform="translate(83.965625 53.594687)scale(0.1 -0.1)">
      <use xlink:href="#DejaVuSans-76"/>
      <use xlink:href="#DejaVuSans-69" x="59.179688"/>
      <use xlink:href="#DejaVuSans-65" x="86.962891"/>
      <use xlink:href="#DejaVuSans-77" x="148.486328"/>
      <use xlink:href="#DejaVuSans-20" x="230.273438"/>
      <use xlink:href="#DejaVuSans-32" x="262.060547"/>
     </g>
    </g>
   </g>
  </g>
 </g>
 <defs>
  <clipPath id="pde5fde2b4f">
   <rect x="46.965625" y="22.318125" width="334.8" height="217.44"/>
  </clipPath>
 </defs>
</svg>
